<svg xmlns="http://www.w3.org/2000/svg" viewBox="0 0 32 32">
  <path d="M16 16 L31 16 A15 15 0 0 1 26.607 26.607 Z" fill="#3F5A3A"/>
  <path d="M16 16 L26.607 26.607 A15 15 0 0 1 16 31 Z" fill="#7E9269"/>
  <path d="M16 16 L16 31 A15 15 0 0 1 5.393 26.607 Z" fill="#B58A3B"/>
  <path d="M16 16 L5.393 26.607 A15 15 0 0 1 1 16 Z" fill="#9C4A3A"/>
  <path d="M16 16 L1 16 A15 15 0 0 1 5.393 5.393 Z" fill="#5B6F4D"/>
  <path d="M16 16 L5.393 5.393 A15 15 0 0 1 16 1 Z" fill="#A8B998"/>
  <path d="M16 16 L16 1 A15 15 0 0 1 26.607 5.393 Z" fill="#8B6F4E"/>
  <path d="M16 16 L26.607 5.393 A15 15 0 0 1 31 16 Z" fill="#C8A66B"/>
  <circle cx="16" cy="16" r="15" fill="none" stroke="#2A2E26" stroke-width="1.5"/>
  <circle cx="16" cy="16" r="2" fill="#2A2E26"/>
</svg>
